<svg width="360" height="216" viewBox="0 0 360 216" fill="none" xmlns="http://www.w3.org/2000/svg">
<g id="Group 66">
<path id="XMLID_68_" d="M50.5 157.4V0H-1V156.8C11.5 157.3 29.2 157.7 50.5 157.4Z" fill="#D1E3E3"/>
<path id="XMLID_65_" d="M102 155.6V0H50.5V157.4C66 157.2 83.4 156.7 102 155.6Z" fill="#E2D93C"/>
<path id="XMLID_55_" d="M153.5 151.1V0H102V155.6C118.4 154.6 135.7 153.2 153.5 151.1Z" fill="#6CA5C7"/>
<path id="XMLID_34_" d="M205.1 143.8V0H153.6V151.1C170.3 149.3 187.6 146.8 205.1 143.8Z" fill="#84AF3E"/>
<path id="XMLID_31_" d="M256.6 132.7V0H205.1V143.8C222.2 140.8 239.5 137.1 256.6 132.7Z" fill="#C23971"/>
<path id="XMLID_28_" d="M308.1 116.7V0H256.6V132.7C274.1 128.2 291.4 122.9 308.1 116.7Z" fill="#C5361E"/>
<path id="XMLID_25_" d="M359.6 93.3V0H308.1V116.7C326.1 110 343.4 102.3 359.6 93.3Z" fill="#274299"/>
<path id="XMLID_24_" d="M50.5 208.6V157.4C29.2 157.7 11.5 157.3 -1 156.8V200.3C12.9 203.5 30.4 206.3 50.5 208.6Z" fill="#CBDCDC"/>
<path id="XMLID_23_" d="M50.5 157.4V208.6C66.2 210.4 83.5 211.9 102 212.9V155.5C83.4 156.7 66 157.2 50.5 157.4Z" fill="#D4CC41"/>
<path id="XMLID_22_" d="M102 155.6V213C118.3 214 135.6 214.6 153.5 214.9V151.1C135.7 153.2 118.4 154.6 102 155.6Z" fill="#679AB9"/>
<path id="XMLID_21_" d="M153.5 151.1V214.9C161.9 215.1 170.5 215.1 179.3 215.1C188.1 215.1 196.6 215 205.1 214.9V143.8C187.6 146.8 170.3 149.3 153.5 151.1Z" fill="#7CA43E"/>
<path id="XMLID_20_" d="M205.1 143.8V214.9C223 214.6 240.3 213.9 256.6 213V132.8C239.5 137.1 222.2 140.8 205.1 143.8Z" fill="#B23869"/>
<path id="XMLID_19_" d="M256.6 132.7V213C275.1 211.9 292.4 210.4 308.1 208.7V116.8C291.4 122.9 274.1 128.2 256.6 132.7Z" fill="#B63622"/>
<path id="XMLID_18_" d="M308.1 208.6C328.2 206.3 345.7 203.5 359.6 200.3V93.3C343.4 102.3 326.1 110 308.1 116.7V208.6Z" fill="#233D8A"/>
</g>
</svg>
