<svg width="142" height="90" viewBox="0 0 142 90" fill="none" xmlns="http://www.w3.org/2000/svg">
<rect x="139.983" y="88" width="137.983" height="86" rx="14" transform="rotate(-180 139.983 88)" fill="white" stroke="#C4C4C4" stroke-width="4"/>
<rect x="127.793" y="77.3621" width="113.603" height="64.7241" rx="7" transform="rotate(-180 127.793 77.3621)" stroke="#C4C4C4" stroke-width="2"/>
<circle cx="70.6033" cy="83.0172" r="1.55172" transform="rotate(-180 70.6033 83.0172)" stroke="#C4C4C4" stroke-width="2"/>
<path d="M29.7294 52H31.8574V47.056C31.8574 45.936 31.6654 44.288 31.5534 43.168H31.6174L32.5614 45.952L34.4014 50.928H35.7614L37.5854 45.952L38.5454 43.168H38.6254C38.4974 44.288 38.3214 45.936 38.3214 47.056V52H40.4814V40.144H37.8574L35.8894 45.696C35.6334 46.432 35.4254 47.216 35.1694 47.968H35.0894C34.8494 47.216 34.6254 46.432 34.3694 45.696L32.3534 40.144H29.7294V52Z" fill="#3F1063"/>
<path d="M43.3857 52H50.8257V50.016H45.7537V46.848H49.9137V44.864H45.7537V42.128H50.6497V40.144H43.3857V52Z" fill="#3F1063"/>
<path d="M58.3174 52.224C59.9654 52.224 61.3574 51.584 62.1574 50.8V45.456H57.9494V47.392H60.0454V49.728C59.7094 50.016 59.1334 50.176 58.5734 50.176C56.2374 50.176 55.0534 48.624 55.0534 46.048C55.0534 43.504 56.4294 41.968 58.3974 41.968C59.4694 41.968 60.1414 42.4 60.7334 42.96L61.9814 41.456C61.2134 40.672 60.0294 39.936 58.3174 39.936C55.1654 39.936 52.6374 42.224 52.6374 46.128C52.6374 50.08 55.1014 52.224 58.3174 52.224Z" fill="#3F1063"/>
<path d="M67.1492 45.824C67.5012 44.592 67.8531 43.248 68.1572 41.952H68.2371C68.5731 43.232 68.8932 44.592 69.2612 45.824L69.6132 47.12H66.7971L67.1492 45.824ZM63.0532 52H65.4531L66.2851 48.96H70.1251L70.9571 52H73.4371L69.6292 40.144H66.8451L63.0532 52Z" fill="#3F1063"/>
<path d="M75.9408 52H78.3088V42.128H81.6688V40.144H72.6128V42.128H75.9408V52Z" fill="#3F1063"/>
<path d="M83.5888 52H85.9568V47.52H87.6048L90.0368 52H92.6768L89.9088 47.152C91.2688 46.624 92.1648 45.52 92.1648 43.744C92.1648 41.024 90.1968 40.144 87.7168 40.144H83.5888V52ZM85.9568 45.648V42.032H87.4928C89.0128 42.032 89.8608 42.464 89.8608 43.744C89.8608 45.008 89.0128 45.648 87.4928 45.648H85.9568Z" fill="#3F1063"/>
<path d="M94.495 52H101.935V50.016H96.863V46.848H101.023V44.864H96.863V42.128H101.759V40.144H94.495V52Z" fill="#3F1063"/>
<path d="M104.339 52H111.779V50.016H106.707V46.848H110.867V44.864H106.707V42.128H111.603V40.144H104.339V52Z" fill="#3F1063"/>
</svg>
